<?xml version="1.0" standalone="no"?>
<!DOCTYPE svg PUBLIC "-//W3C//DTD SVG 20010904//EN"
 "http://www.w3.org/TR/2001/REC-SVG-20010904/DTD/svg10.dtd">
<svg version="1.0" xmlns="http://www.w3.org/2000/svg"
 width="1800.000000pt" height="1440.000000pt" viewBox="0 0 1800.000000 1440.000000"
 preserveAspectRatio="xMidYMid meet">
<g transform="translate(0.000000,1440.000000) scale(0.100000,-0.100000)"
fill="none" stroke="none">
<path d="M0 7200 l0 -7200 9000 0 9000 0 0 7200 0 7200 -9000 0 -9000 0 0
-7200z m9032 4743 c21 -19 24 -74 6 -103 -19 -31 -3 -34 71 -17 120 29 266 19
345 -25 149 -81 153 -82 286 -82 93 0 134 4 162 16 22 10 40 13 43 7 12 -18
-43 -117 -94 -170 -28 -29 -51 -57 -51 -62 0 -14 121 -136 141 -142 11 -4 19
-12 19 -19 0 -53 -183 -95 -331 -78 -54 7 -100 21 -162 50 -113 53 -197 67
-297 48 -77 -14 -129 -33 -142 -51 -4 -5 -8 -133 -8 -283 l0 -273 -37 3 -38 3
-5 535 c-4 402 -8 540 -17 557 -17 29 -16 49 3 78 20 30 77 34 106 8z m-824
-1195 c8 -8 12 -55 12 -144 0 -111 3 -133 16 -138 30 -11 229 -7 242 6 8 8 12
55 12 145 0 129 1 133 23 138 12 3 90 4 172 3 l150 -3 3 -134 c1 -79 7 -140
14 -148 14 -18 238 -19 256 -1 8 8 12 55 12 144 0 111 3 133 16 138 24 9 322
7 328 -3 3 -4 8 -68 10 -141 3 -73 9 -137 14 -142 5 -5 62 -7 128 -6 l119 3 3
137 c2 99 6 139 16 147 9 8 67 11 177 9 l164 -3 3 -349 2 -348 -58 -67 c-32
-36 -68 -79 -81 -96 -12 -16 -38 -47 -57 -67 l-35 -38 -83 0 c-103 0 -111 6
-90 78 9 28 14 64 12 79 l-3 28 -84 0 -84 0 -13 -50 c-8 -27 -17 -63 -20 -80
-12 -55 -13 -55 -203 -55 -97 0 -182 4 -188 8 -9 6 -12 34 -10 92 l2 85 -115
0 -115 0 -5 -90 -5 -90 -190 0 -190 0 -13 28 c-8 16 -17 54 -21 84 -5 30 -14
59 -22 64 -8 5 -48 8 -89 7 l-75 -3 1 -30 c0 -16 3 -57 5 -90 l4 -60 -75 -3
c-41 -2 -84 -1 -96 2 -11 3 -48 38 -82 78 -33 40 -74 89 -91 108 -42 46 -46
53 -60 77 -11 23 -17 675 -6 693 9 15 328 13 343 -2z m1657 -1078 c4 -6 11
-95 16 -198 5 -103 16 -293 24 -422 9 -129 15 -276 15 -327 0 -50 7 -171 15
-270 8 -98 16 -198 17 -223 l3 -45 120 -5 120 -5 7 -65 c4 -36 12 -204 17
-375 10 -300 20 -576 41 -1063 6 -128 7 -238 4 -244 -5 -7 -41 -8 -113 -3 -58
4 -230 10 -381 14 -151 3 -281 10 -287 14 -10 6 -13 104 -13 433 0 462 -3 499
-58 614 -36 76 -149 186 -232 227 -129 62 -179 76 -230 63 -55 -13 -147 -50
-215 -87 -58 -31 -149 -135 -190 -218 l-40 -80 -5 -466 c-4 -352 -8 -470 -18
-481 -10 -12 -60 -16 -295 -21 -155 -3 -324 -11 -375 -17 -52 -5 -98 -8 -103
-4 -14 8 -11 300 6 669 8 182 22 499 30 705 9 206 19 378 23 382 4 4 59 9 122
10 l114 3 8 37 c4 20 12 137 17 260 13 290 29 559 42 728 6 74 13 205 15 290
3 85 7 161 9 168 6 16 1760 18 1770 2z m-3360 -272 c2 -7 5 -64 7 -126 3 -86
7 -115 18 -122 8 -6 58 -9 110 -8 l95 3 3 122 c2 87 6 124 16 132 9 8 60 11
152 9 l139 -3 3 -120 c2 -98 5 -122 19 -132 19 -14 180 -18 200 -5 8 5 13 48
15 132 l3 125 139 3 c96 2 143 -1 153 -9 11 -10 13 -61 11 -304 l-3 -291 -51
-65 -50 -64 -59 -3 c-75 -4 -102 3 -110 28 -5 17 -15 20 -59 20 -44 0 -56 -4
-68 -21 -12 -18 -27 -23 -89 -27 -69 -4 -77 -3 -106 22 -25 21 -41 26 -88 26
-49 0 -61 -4 -81 -25 -21 -23 -31 -25 -104 -25 -73 0 -82 2 -102 25 -17 20
-31 25 -69 25 -39 0 -49 -4 -63 -25 -15 -23 -23 -25 -91 -25 l-74 0 -61 79
-60 80 0 284 c0 156 3 287 7 290 3 4 71 7 150 7 106 0 145 -3 148 -12z m4164
-5 c5 -10 9 -67 10 -127 1 -76 5 -112 13 -118 17 -10 189 -10 205 0 8 5 13 48
15 132 l3 125 145 0 145 0 3 -119 c1 -67 7 -126 14 -133 12 -15 184 -18 208
-3 12 7 16 38 20 132 l5 123 143 3 142 3 11 -28 c6 -17 9 -127 7 -298 l-3
-270 -48 -62 c-26 -35 -57 -68 -68 -73 -11 -6 -50 -10 -87 -8 -61 3 -67 5 -70
26 -3 20 -9 22 -57 22 -44 0 -59 -5 -79 -25 -23 -22 -33 -25 -104 -25 -74 0
-81 2 -96 25 -15 22 -23 25 -79 25 -55 0 -67 -3 -87 -25 -21 -22 -31 -25 -100
-25 -69 0 -79 3 -100 25 -19 20 -33 25 -75 25 -46 0 -53 -3 -63 -25 -11 -23
-17 -25 -80 -25 -78 0 -82 2 -145 87 l-47 61 0 290 c0 159 3 292 7 295 3 4 68
7 144 7 122 0 139 -2 148 -17z m-3207 -825 c15 -11 18 -40 23 -213 3 -110 12
-346 20 -525 41 -929 57 -1401 46 -1412 -8 -9 -362 -50 -591 -68 -89 -7 -162
-15 -355 -42 -44 -6 -111 -14 -150 -18 -38 -4 -98 -13 -132 -20 -99 -20 -96
-25 -90 158 3 86 10 254 16 372 6 118 18 366 26 550 8 184 22 463 30 620 9
157 15 350 15 430 0 80 4 150 8 157 10 16 44 18 612 21 403 2 508 0 522 -10z
m4162 1 c6 -7 27 -370 36 -634 4 -137 13 -344 19 -460 39 -752 54 -1196 42
-1208 -7 -7 -38 -4 -93 7 -46 9 -101 16 -123 16 -22 0 -56 5 -75 10 -19 6 -80
14 -135 19 -55 5 -136 14 -180 20 -146 19 -279 33 -395 41 -63 4 -161 14 -217
20 l-103 13 0 116 c0 64 5 168 10 231 5 63 14 246 19 405 6 160 15 391 21 515
32 686 42 876 46 888 3 11 109 12 564 9 308 -2 562 -5 564 -8z m-2074 -2319
c356 -11 753 -29 870 -40 58 -6 161 -12 230 -15 69 -3 132 -8 140 -10 16 -5
286 -31 465 -45 61 -5 133 -14 160 -20 28 -5 88 -15 135 -20 145 -16 243 -29
305 -39 105 -18 198 -33 265 -42 36 -5 85 -13 110 -19 49 -10 164 -33 250 -49
30 -6 87 -18 125 -27 39 -8 99 -22 135 -30 68 -14 142 -31 250 -58 36 -9 84
-21 108 -26 23 -5 51 -14 61 -20 11 -5 29 -10 40 -10 11 0 42 -7 68 -15 26 -8
71 -21 98 -29 141 -39 260 -75 294 -88 13 -5 76 -26 140 -48 171 -58 205 -70
216 -81 5 -5 21 -9 36 -9 28 0 47 -16 35 -28 -4 -3 -26 0 -49 7 -73 21 -315
73 -552 117 -44 9 -114 22 -155 30 -41 8 -111 19 -155 24 -44 6 -87 13 -95 16
-17 7 -170 31 -275 44 -38 5 -97 14 -130 19 -62 11 -172 26 -306 41 -41 5 -95
14 -120 19 -24 6 -62 11 -84 11 -21 0 -82 6 -135 14 -95 15 -170 23 -475 52
-299 28 -510 44 -690 54 -99 5 -229 14 -290 20 -498 48 -2341 48 -3005 -1 -80
-6 -230 -14 -335 -19 -208 -10 -569 -36 -625 -45 -19 -3 -91 -10 -160 -15
-241 -18 -751 -74 -915 -101 -33 -5 -98 -14 -145 -19 -47 -5 -128 -16 -180
-24 -52 -8 -140 -22 -195 -30 -138 -21 -231 -36 -290 -47 -27 -5 -102 -18
-165 -29 -63 -11 -144 -27 -180 -35 -36 -8 -78 -16 -95 -20 -33 -6 -135 -27
-235 -48 -36 -8 -84 -20 -108 -27 -31 -10 -46 -10 -54 -2 -8 8 -3 13 18 17 16
3 37 10 46 16 10 5 46 18 80 30 35 11 77 27 95 35 17 8 40 14 50 14 10 0 23 4
28 9 6 4 44 18 85 31 41 13 93 28 115 35 22 7 67 21 100 30 33 10 78 24 100
31 22 6 69 20 105 29 82 21 151 40 219 59 29 9 60 16 68 16 8 0 35 6 61 14 26
8 83 22 127 31 111 24 191 41 252 55 29 6 76 15 105 20 29 5 89 16 133 24 44
9 109 21 145 27 36 5 95 16 131 24 37 8 81 15 99 15 17 0 50 5 73 10 23 6 76
14 117 20 146 17 246 31 305 41 33 5 107 14 165 19 58 5 152 14 210 19 641 62
592 59 1280 90 215 10 1049 11 1350 1z m-1445 -1270 c149 -24 310 -71 336 -97
13 -13 14 -312 1 -325 -8 -8 -14 -4 -22 16 -30 79 -66 139 -113 189 -97 102
-210 147 -366 147 -276 -1 -436 -124 -521 -402 -30 -98 -33 -350 -6 -443 71
-238 191 -369 395 -429 110 -33 303 -13 393 41 67 39 70 50 66 245 -4 207 -10
222 -103 252 -107 33 -69 41 210 41 277 0 311 -7 214 -41 -82 -30 -83 -36 -87
-275 -3 -178 -6 -210 -20 -222 -22 -19 -171 -81 -242 -101 -215 -59 -458 -60
-620 -1 -77 28 -126 49 -141 62 -8 7 -19 13 -23 13 -12 0 -77 50 -130 99 -50
47 -112 133 -131 181 -4 8 -12 29 -19 45 -39 91 -46 131 -46 274 0 144 6 177
49 286 62 157 197 300 351 371 108 51 116 53 280 83 77 15 170 12 295 -9z
m5990 -1 c104 -24 184 -52 189 -64 7 -18 10 -274 4 -280 -12 -13 -37 9 -44 38
-18 86 -93 178 -172 213 -73 32 -197 34 -265 4 -88 -39 -139 -143 -115 -237
21 -88 80 -142 248 -232 52 -27 115 -61 140 -75 25 -14 52 -29 60 -33 37 -17
121 -86 152 -125 56 -70 76 -117 93 -225 7 -47 -17 -157 -46 -213 -89 -166
-334 -253 -576 -204 -146 29 -267 73 -277 99 -3 9 -6 88 -6 175 0 133 2 159
15 164 16 6 19 2 30 -48 20 -91 103 -213 176 -259 98 -60 254 -75 344 -33 52
24 109 80 126 123 16 42 11 141 -10 186 -31 68 -69 98 -226 182 -49 26 -119
64 -155 83 -158 84 -223 144 -265 239 -31 70 -35 210 -8 283 19 50 69 121 106
150 118 93 313 129 482 89z m-4347 -44 c13 -28 31 -66 39 -85 29 -67 45 -105
57 -135 7 -16 20 -46 28 -65 9 -19 53 -123 98 -230 45 -107 86 -199 91 -204 5
-6 9 -16 9 -23 0 -7 14 -43 31 -80 16 -38 36 -81 43 -98 7 -16 27 -60 45 -97
17 -37 31 -73 31 -79 0 -6 6 -23 14 -37 7 -15 23 -48 35 -74 26 -55 73 -104
109 -112 35 -7 66 -32 58 -45 -8 -12 -505 -15 -524 -3 -17 11 -1 25 52 47 68
29 68 73 1 230 -7 17 -20 50 -30 75 -9 25 -26 61 -36 80 l-18 35 -246 3 c-227
2 -246 1 -251 -15 -3 -10 -12 -33 -20 -50 -38 -88 -53 -125 -88 -221 -30 -80
-20 -101 64 -145 24 -12 43 -26 42 -32 -1 -6 -75 -10 -199 -10 -217 0 -244 8
-156 47 47 20 113 81 113 104 0 6 7 17 15 24 8 7 15 21 15 30 0 10 7 31 15 47
26 51 75 163 75 172 0 5 6 22 14 38 8 15 36 80 61 143 49 119 61 147 91 215 9
22 24 56 32 75 8 19 21 47 29 62 7 14 13 31 13 37 0 6 13 39 29 73 15 35 50
115 77 178 84 200 99 214 142 125z m-5373 19 c57 -10 126 -29 160 -45 163 -76
245 -240 203 -406 -30 -117 -131 -216 -260 -257 -25 -8 -22 -45 6 -75 22 -24
149 -191 266 -351 78 -107 178 -188 250 -204 35 -7 64 -31 56 -44 -5 -8 -52
-12 -149 -12 -145 1 -194 10 -272 52 -51 28 -139 131 -200 236 -5 10 -45 69
-87 132 -129 193 -162 223 -259 236 -81 11 -79 17 -79 -265 0 -236 1 -248 23
-285 17 -31 32 -43 72 -56 29 -10 50 -23 50 -31 0 -12 -42 -14 -259 -14 -276
0 -312 7 -219 41 26 9 59 28 73 41 l25 23 3 523 c2 287 1 554 -3 594 -8 88
-30 118 -93 128 -42 7 -66 30 -44 44 5 3 151 7 324 9 255 2 331 -1 413 -14z
m2145 -4 c6 -12 9 -78 8 -162 -2 -117 -6 -143 -18 -143 -8 0 -22 23 -33 58
-26 77 -81 138 -141 156 -49 14 -404 17 -418 3 -10 -10 -14 -514 -5 -529 10
-17 218 -18 285 -2 59 14 110 66 118 121 7 43 22 58 35 37 12 -19 11 -400 -1
-419 -12 -20 -24 -6 -39 47 -20 72 -51 100 -129 113 -37 6 -112 10 -166 8
l-100 -3 -9 -34 c-5 -19 -7 -139 -5 -266 3 -201 5 -234 21 -258 l17 -27 194 0
c175 0 200 2 250 22 81 30 138 84 181 173 34 68 55 89 69 67 5 -8 -7 -74 -30
-163 -8 -30 -14 -71 -14 -90 0 -19 -9 -49 -20 -66 l-20 -33 -497 0 c-277 0
-504 4 -512 9 -11 7 -7 14 20 30 19 12 41 21 50 21 9 0 25 12 35 28 18 26 19
58 19 619 l0 591 -23 25 c-13 14 -39 28 -57 31 -37 7 -50 19 -42 40 4 9 109
13 486 14 466 1 481 0 491 -18z m4866 9 c9 -16 -15 -34 -64 -48 -38 -11 -46
-19 -63 -57 -19 -42 -20 -66 -17 -610 3 -547 4 -566 22 -580 15 -11 56 -14
172 -14 200 0 263 18 339 94 30 30 65 78 80 112 63 135 94 117 61 -36 -8 -36
-21 -102 -29 -148 -9 -46 -21 -90 -28 -98 -10 -12 -86 -14 -488 -14 -262 0
-482 5 -490 9 -11 7 -7 14 20 30 19 12 39 21 45 21 6 0 21 12 35 26 l24 26 0
593 0 593 -23 25 c-13 14 -39 28 -57 31 -41 8 -66 33 -44 47 20 13 497 11 505
-2z m1530 -1 c13 -14 -17 -36 -57 -43 -31 -5 -45 -15 -64 -43 l-25 -37 0 -571
0 -571 23 -33 c15 -23 37 -38 72 -50 29 -10 50 -23 50 -31 0 -12 -41 -14 -249
-14 -270 0 -300 6 -214 45 90 40 83 -16 83 655 l0 593 -23 25 c-13 14 -39 28
-57 31 -37 7 -50 19 -42 40 4 10 58 13 250 12 135 -1 249 -4 253 -8z m-8850
-1960 c54 -19 71 -84 33 -132 -13 -17 -30 -26 -48 -26 -16 0 -43 -3 -60 -6
-27 -6 -31 -11 -31 -39 0 -42 -9 -65 -25 -65 -20 0 -25 25 -25 136 0 133 5
144 72 144 28 0 66 -5 84 -12z m398 -17 c35 -33 35 -86 1 -123 -30 -32 -30
-36 -5 -68 11 -14 20 -33 20 -42 0 -41 -54 -6 -86 55 -11 20 -21 27 -37 25
-18 -2 -23 -12 -28 -45 -6 -49 -12 -58 -34 -50 -12 5 -15 28 -15 135 0 71 3
132 8 136 4 4 39 6 79 4 59 -3 76 -8 97 -27z m374 16 c54 -23 77 -63 77 -135
0 -59 -3 -66 -32 -93 -73 -64 -170 -55 -219 22 -74 118 45 260 174 206z m400
2 c60 -21 80 -87 40 -134 -18 -20 -35 -27 -81 -32 -61 -6 -62 -7 -69 -73 -4
-33 -34 -39 -41 -8 -7 35 -3 231 6 246 10 15 102 16 145 1z m398 -4 c16 -13
17 -16 4 -25 -8 -5 -40 -10 -71 -10 -48 0 -57 -3 -62 -20 -9 -34 15 -54 60
-48 46 7 69 -3 60 -25 -4 -11 -22 -17 -59 -19 -51 -3 -53 -4 -56 -34 l-3 -32
65 -4 c72 -4 79 -8 70 -32 -9 -23 -179 -24 -188 0 -12 30 -7 239 6 252 18 18
149 16 174 -3z m353 -5 c45 -23 50 -99 10 -136 -24 -21 -24 -32 1 -64 23 -30
26 -60 5 -60 -16 0 -55 34 -55 49 0 4 -11 20 -24 34 -32 34 -56 26 -56 -18 0
-63 -27 -88 -50 -46 -13 26 -13 217 0 242 10 17 19 19 79 15 38 -2 78 -9 90
-16z m389 -7 c3 -19 -1 -23 -21 -23 -54 0 -57 -5 -57 -109 0 -102 -10 -135
-32 -113 -8 8 -11 38 -9 88 1 42 -1 90 -4 105 -6 25 -11 29 -40 29 -38 0 -52
14 -35 35 9 10 35 13 103 12 87 -2 92 -3 95 -24z m814 10 c14 -17 48 -87 62
-126 7 -21 25 -19 37 4 5 8 20 39 34 71 27 60 45 74 76 58 17 -10 19 -22 19
-129 0 -95 -3 -121 -15 -131 -25 -20 -34 -1 -37 75 -2 39 -7 69 -12 68 -5 -1
-21 -30 -36 -65 -41 -97 -69 -87 -105 40 -12 42 -30 17 -33 -45 -3 -61 -20
-92 -42 -78 -11 7 -15 232 -4 259 8 21 37 20 56 -1z m546 -25 c81 -178 98
-238 67 -238 -8 0 -24 14 -37 30 -19 26 -28 30 -69 30 -41 0 -51 -4 -73 -31
-30 -36 -61 -34 -51 3 7 24 29 83 51 135 8 17 14 35 14 40 0 4 9 23 20 41 28
45 54 42 78 -10z m344 -39 c77 -99 88 -100 88 -11 0 48 4 73 14 81 25 21 37
-21 35 -124 -2 -116 -7 -145 -26 -145 -20 0 -78 62 -115 122 -17 27 -34 46
-39 42 -5 -3 -9 -34 -9 -69 0 -72 -6 -95 -26 -95 -25 0 -34 38 -34 144 0 83 3
108 16 121 9 9 21 14 28 12 6 -2 37 -37 68 -78z m467 18 c12 -24 21 -47 21
-51 0 -4 6 -22 14 -39 30 -70 36 -89 36 -107 0 -29 -26 -24 -50 10 -19 26 -27
30 -68 30 -53 0 -64 -5 -81 -37 -12 -24 -35 -30 -47 -12 -5 9 16 72 62 176 8
17 14 36 14 42 0 6 9 20 20 31 27 27 51 14 79 -43z m411 48 c21 -11 30 -23 30
-40 0 -28 -21 -33 -40 -10 -8 9 -29 15 -55 15 -56 0 -85 -33 -85 -95 0 -60 31
-87 96 -83 45 3 49 5 49 28 0 20 -6 26 -27 28 -16 2 -28 9 -28 18 0 8 3 14 8
15 4 0 23 2 42 4 51 5 70 -9 70 -51 0 -43 -32 -78 -88 -95 -37 -11 -45 -9 -89
12 -51 25 -93 82 -93 127 0 37 38 101 73 122 38 24 97 26 137 5z m410 -5 c15
-24 1 -30 -66 -30 -51 0 -66 -4 -71 -16 -12 -31 11 -49 68 -54 39 -4 54 -9 54
-20 0 -11 -15 -16 -54 -20 -57 -5 -80 -23 -68 -54 5 -12 20 -16 71 -16 64 0
79 -8 68 -37 -6 -17 -163 -18 -180 -1 -8 8 -12 51 -12 130 0 101 2 118 18 127
25 15 162 8 172 -9z m235 12 c11 -8 55 -94 55 -108 0 -5 9 -20 19 -33 l19 -24
21 48 c11 26 21 52 21 57 0 20 42 68 60 68 28 0 31 -10 34 -122 4 -116 -1
-158 -19 -158 -19 0 -25 24 -25 92 0 66 -14 74 -39 22 -38 -78 -51 -99 -58
-99 -8 0 -46 65 -76 130 l-14 30 -8 -28 c-4 -16 -5 -46 -2 -68 6 -47 -1 -79
-18 -79 -21 0 -25 25 -25 144 0 74 4 116 12 124 14 14 28 15 43 4z m596 -8
c19 -23 -4 -34 -74 -34 l-58 0 3 -32 c3 -33 4 -33 61 -36 49 -3 58 -6 55 -20
-2 -13 -17 -18 -58 -22 -54 -5 -55 -6 -58 -37 -4 -36 -4 -35 68 -34 53 2 73
-9 64 -32 -9 -24 -179 -25 -188 -1 -12 30 -7 239 6 252 19 19 162 16 179 -4z
m285 -69 c34 -44 66 -81 73 -83 7 -2 11 19 11 70 0 78 12 107 37 87 15 -13 19
-234 4 -258 -16 -25 -47 -2 -106 79 -32 43 -62 77 -67 74 -4 -3 -8 -34 -8 -69
0 -72 -6 -95 -26 -95 -25 0 -34 38 -34 144 0 83 3 108 16 121 9 9 21 14 28 12
6 -2 38 -39 72 -82z m493 76 c23 -15 5 -39 -31 -43 l-33 -3 -5 -109 c-5 -108
-11 -125 -40 -106 -15 10 -17 19 -19 145 l-1 75 -29 0 c-35 0 -48 15 -31 35
14 17 165 21 189 6z m540 -2 c21 -8 31 -17 29 -28 -3 -13 -16 -16 -63 -16 -54
0 -60 -2 -63 -22 -3 -18 5 -24 53 -38 67 -19 95 -44 95 -85 0 -37 -27 -65 -78
-81 -34 -10 -45 -9 -85 9 -34 15 -47 27 -47 41 0 25 3 25 55 7 22 -8 53 -12
68 -9 23 5 28 10 25 31 -2 20 -10 28 -33 32 -66 14 -115 52 -115 90 0 65 76
98 159 69z m395 -3 c53 -22 76 -60 76 -123 0 -71 -23 -110 -78 -134 -55 -24
-64 -24 -112 1 -56 28 -80 67 -80 129 0 107 95 169 194 127z m425 -5 c15 -27
5 -31 -65 -31 -54 0 -64 -3 -69 -20 -10 -33 12 -50 66 -50 86 0 75 -41 -14
-50 l-52 -5 -1 -48 c-2 -54 -6 -62 -29 -54 -12 5 -15 28 -15 130 0 82 4 127
12 135 7 7 41 12 85 12 60 0 74 -3 82 -19z m339 13 c12 -4 22 -14 22 -25 0
-13 -9 -19 -37 -21 l-38 -3 -3 -105 c-3 -109 -10 -132 -36 -111 -11 10 -16 39
-18 114 l-3 102 -30 3 c-39 5 -52 17 -35 37 9 11 32 15 84 15 39 0 81 -3 94
-6z m512 -36 c0 -29 -10 -64 -51 -183 -14 -41 -21 -50 -40 -50 -19 0 -26 10
-41 50 -10 28 -18 60 -18 72 0 12 -5 25 -10 28 -12 7 -49 -70 -50 -102 0 -24
-24 -53 -45 -53 -17 0 -32 27 -50 88 -42 153 -45 166 -36 175 25 25 52 -22 76
-138 6 -29 7 -29 21 -10 8 11 19 38 25 60 22 84 25 90 46 93 17 3 23 -5 36
-50 9 -29 18 -65 22 -80 11 -54 36 -27 55 58 18 79 60 109 60 42z m272 30 c9
-7 26 -38 38 -68 12 -30 27 -68 34 -85 43 -99 45 -115 16 -115 -10 0 -25 10
-31 23 -17 32 -28 37 -81 37 -41 0 -49 -4 -68 -30 -37 -51 -71 -35 -46 22 55
130 76 182 76 194 0 12 26 33 41 34 3 0 12 -6 21 -12z m445 -14 c40 -30 43
-89 8 -126 -30 -32 -30 -36 -5 -68 11 -14 20 -33 20 -42 0 -41 -54 -6 -86 55
-15 28 -63 39 -65 15 -5 -47 -7 -58 -12 -72 -4 -9 -13 -16 -22 -16 -13 0 -15
20 -15 133 0 74 3 137 8 141 4 4 37 6 74 4 48 -3 75 -10 95 -24z m383 11 c20
-25 1 -35 -65 -35 -56 0 -64 -3 -70 -21 -10 -30 5 -40 64 -43 88 -5 98 -46 11
-46 -31 0 -54 -6 -64 -16 -34 -34 -13 -52 64 -56 57 -3 65 -5 65 -23 0 -18 -8
-20 -84 -23 -61 -2 -87 1 -92 10 -14 21 -11 242 3 256 18 18 152 16 168 -3z
m-7718 -7 c8 -7 25 -30 38 -51 l22 -38 24 22 c13 12 24 27 24 32 0 18 32 47
52 47 26 0 23 -19 -14 -75 -46 -70 -58 -100 -58 -146 0 -26 -5 -42 -15 -46
-23 -8 -29 2 -31 50 0 23 -2 47 -3 53 0 5 -19 38 -41 72 -22 33 -40 68 -40 77
0 18 20 20 42 3z" fill="#002060"/>
<path d="M9550 6250 c356 -11 753 -29 870 -40 58 -6 161 -12 230 -15 69 -3 132 -8 140 -10 16 -5 286 -31 465 -45 61 -5 133 -14 160 -20 28 -5 88 -15 135 -20 145 -16 243 -29 305 -39 105 -18 198 -33 265 -42 36 -5 85 -13 110 -19 49 -10 164 -33 250 -49 30 -6 87 -18 125 -27 39 -8 99 -22 135 -30 68 -14 142 -31 250 -58 36 -9 84 -21 108 -26 23 -5 51 -14 61 -20 11 -5 29 -10 40 -10 11 0 42 -7 68 -15 26 -8 71 -21 98 -29 141 -39 260 -75 294 -88 13 -5 76 -26 140 -48 171 -58 205 -70 216 -81 5 -5 21 -9 36 -9 28 0 47 -16 35 -28 -4 -3 -26 0 -49 7 -73 21 -315 73 -552 117 -44 9 -114 22 -155 30 -41 8 -111 19 -155 24 -44 6 -87 13 -95 16 -17 7 -170 31 -275 44 -38 5 -97 14 -130 19 -62 11 -172 26 -306 41 -41 5 -95 14 -120 19 -24 6 -62 11 -84 11 -21 0 -82 6 -135 14 -95 15 -170 23 -475 52 -299 28 -510 44 -690 54 -99 5 -229 14 -290 20 -498 48 -2341 48 -3005 -1 -80 -6 -230 -14 -335 -19 -208 -10 -569 -36 -625 -45 -19 -3 -91 -10 -160 -15 -241 -18 -751 -74 -915 -101 -33 -5 -98 -14 -145 -19 -47 -5 -128 -16 -180 -24 -52 -8 -140 -22 -195 -30 -138 -21 -231 -36 -290 -47 -27 -5 -102 -18 -165 -29 -63 -11 -144 -27 -180 -35 -36 -8 -78 -16 -95 -20 -33 -6 -135 -27 -235 -48 -36 -8 -84 -20 -108 -27 -31 -10 -46 -10 -54 -2 -8 8 -3 13 18 17 16 3 37 10 46 16 10 5 46 18 80 30 35 11 77 27 95 35 17 8 40 14 50 14 10 0 23 4 28 9 6 4 44 18 85 31 41 13 93 28 115 35 22 7 67 21 100 30 33 10 78 24 100 31 22 6 69 20 105 29 82 21 151 40 219 59 29 9 60 16 68 16 8 0 35 6 61 14 26 8 83 22 127 31 111 24 191 41 252 55 29 6 76 15 105 20 29 5 89 16 133 24 44 9 109 21 145 27 36 5 95 16 131 24 37 8 81 15 99 15 17 0 50 5 73 10 23 6 76 14 117 20 146 17 246 31 305 41 33 5 107 14 165 19 58 5 152 14 210 19 641 62 592 59 1280 90 215 10 1049 11 1350 1z" fill="#D9B24C"/>
<path d="M8898 9179 c-21 -10 -49 -36 -63 -56 l-25 -38 0 -271 c0 -170 4 -274
10 -276 5 -1 83 -1 172 2 l163 5 3 245 c4 307 -3 335 -89 388 -46 28 -119 29
-171 1z" fill="#002060"/>
<path d="M6847 8192 c-16 -9 -38 -35 -49 -57 -20 -37 -21 -56 -20 -245 1 -113
2 -209 2 -213 0 -4 62 -6 138 -5 l137 3 3 206 c3 231 -3 259 -61 303 -41 31
-107 35 -150 8z" fill="#002060"/>
<path d="M10978 8185 c-54 -37 -60 -67 -56 -305 l3 -205 135 0 135 0 3 205 c2
169 0 212 -13 247 -31 81 -132 109 -207 58z" fill="#002060"/>
<path d="M9624 4613 c-9 -27 -35 -94 -52 -133 -8 -19 -21 -48 -27 -65 -7 -16
-19 -46 -27 -65 -80 -184 -92 -227 -60 -224 6 1 96 2 198 3 l186 1 -6 35 c-4
19 -16 56 -27 82 -28 66 -32 77 -69 168 -69 173 -88 215 -100 215 -6 0 -13 -8
-16 -17z" fill="#002060"/>
<path d="M4022 4878 c-9 -12 -12 -85 -10 -304 l3 -289 129 -3 c151 -3 206 11
265 68 67 65 84 111 84 225 1 88 -2 106 -25 150 -31 59 -77 105 -136 135 -57
30 -289 43 -310 18z" fill="#002060"/>
<path d="M3967 2953 c-4 -3 -7 -21 -7 -39 0 -27 5 -35 24 -40 52 -13 104 37
76 71 -12 15 -81 21 -93 8z" fill="#002060"/>
<path d="M4337 2953 c-4 -3 -7 -19 -7 -35 0 -49 76 -63 100 -17 18 32 -4 59
-49 59 -21 0 -41 -3 -44 -7z" fill="#002060"/>
<path d="M4722 2937 c-16 -17 -22 -36 -22 -68 0 -60 29 -89 88 -89 37 0 45 4
62 33 24 39 25 58 4 100 -21 41 -31 47 -75 47 -24 0 -42 -7 -57 -23z" fill="#002060"/>
<path d="M5143 2953 c-21 -8 -16 -61 8 -73 31 -17 78 -3 85 26 10 40 -1 54
-43 53 -21 0 -44 -3 -50 -6z" fill="#002060"/>
<path d="M5877 2953 c-14 -13 -7 -71 9 -77 30 -11 61 -6 79 14 15 17 16 24 7
45 -9 20 -19 25 -50 25 -21 0 -42 -3 -45 -7z" fill="#002060"/>
<path d="M7671 2889 c-13 -39 -8 -49 30 -49 31 0 36 11 19 54 -13 35 -36 33
-49 -5z" fill="#002060"/>
<path d="M8484 2913 c-3 -10 -10 -26 -15 -35 -15 -30 -10 -38 24 -38 46 0 49
6 26 51 -22 44 -27 47 -35 22z" fill="#002060"/>
<path d="M11808 2950 c-41 -24 -46 -121 -8 -155 35 -32 110 -20 128 21 32 70
-2 144 -66 144 -20 0 -45 -5 -54 -10z" fill="#002060"/>
<path d="M13421 2892 c-23 -46 -20 -52 26 -52 32 0 46 21 23 35 -5 3 -10 15
-10 25 0 35 -19 31 -39 -8z" fill="#002060"/>
<path d="M13783 2954 c-15 -7 -17 -43 -4 -64 11 -16 77 -18 93 -2 5 5 8 22 6
38 -3 26 -7 29 -43 31 -22 1 -46 0 -52 -3z" fill="#002060"/>
</g>
</svg>
