<?xml version="1.0" encoding="UTF-8"?>
<svg xmlns="http://www.w3.org/2000/svg"
     width="1800" height="1440"
     viewBox="0 0 18000 14400"
     preserveAspectRatio="xMidYMid meet">
  <defs>
    <linearGradient id="bg" x1="0" y1="0" x2="0" y2="1">
      <stop offset="0%" stop-color="#00081f"/>
      <stop offset="100%" stop-color="#001030"/>
    </linearGradient>
  </defs>
  <rect width="18000" height="14400" fill="url(#bg)"/>
  <g transform="translate(0,14400) scale(1,-1)">
    <path d="M9550 6250 c356 -11 753 -29 870 -40 58 -6 161 -12 230 -15 69 -3 132 -8 140 -10 16 -5 286 -31 465 -45 61 -5 133 -14 160 -20 28 -5 88 -15 135 -20 145 -16 243 -29 305 -39 105 -18 198 -33 265 -42 36 -5 85 -13 110 -19 49 -10 164 -33 250 -49 30 -6 87 -18 125 -27 39 -8 99 -22 135 -30 68 -14 142 -31 250 -58 36 -9 84 -21 108 -26 23 -5 51 -14 61 -20 11 -5 29 -10 40 -10 11 0 42 -7 68 -15 26 -8 71 -21 98 -29 141 -39 260 -75 294 -88 13 -5 76 -26 140 -48 171 -58 205 -70 216 -81 5 -5 21 -9 36 -9 28 0 47 -16 35 -28 -4 -3 -26 0 -49 7 -73 21 -315 73 -552 117 -44 9 -114 22 -155 30 -41 8 -111 19 -155 24 -44 6 -87 13 -95 16 -17 7 -170 31 -275 44 -38 5 -97 14 -130 19 -62 11 -172 26 -306 41 -41 5 -95 14 -120 19 -24 6 -62 11 -84 11 -21 0 -82 6 -135 14 -95 15 -170 23 -475 52 -299 28 -510 44 -690 54 -99 5 -229 14 -290 20 -498 48 -2341 48 -3005 -1 -80 -6 -230 -14 -335 -19 -208 -10 -569 -36 -625 -45 -19 -3 -91 -10 -160 -15 -241 -18 -751 -74 -915 -101 -33 -5 -98 -14 -145 -19 -47 -5 -128 -16 -180 -24 -52 -8 -140 -22 -195 -30 -138 -21 -231 -36 -290 -47 -27 -5 -102 -18 -165 -29 -63 -11 -144 -27 -180 -35 -36 -8 -78 -16 -95 -20 -33 -6 -135 -27 -235 -48 -36 -8 -84 -20 -108 -27 -31 -10 -46 -10 -54 -2 -8 8 -3 13 18 17 16 3 37 10 46 16 10 5 46 18 80 30 35 11 77 27 95 35 17 8 40 14 50 14 10 0 23 4 28 9 6 4 44 18 85 31 41 13 93 28 115 35 22 7 67 21 100 30 33 10 78 24 100 31 22 6 69 20 105 29 82 21 151 40 219 59 29 9 60 16 68 16 8 0 35 6 61 14 26 8 83 22 127 31 111 24 191 41 252 55 29 6 76 15 105 20 29 5 89 16 133 24 44 9 109 21 145 27 36 5 95 16 131 24 37 8 81 15 99 15 17 0 50 5 73 10 23 6 76 14 117 20 146 17 246 31 305 41 33 5 107 14 165 19 58 5 152 14 210 19 641 62 592 59 1280 90 215 10 1049 11 1350 1z" fill="#D9B24C"/>
    <path d="M 9032.0,11943.0 C 9053.0,11924.0 9056.0,11869.0 9038.0,11840.0 C 9019.0,11809.0 9035.0,11806.0 9109.0,11823.0 C 9229.0,11852.0 9375.0,11842.0 9454.0,11798.0 C 9603.0,11717.0 9607.0,11716.0 9740.0,11716.0 C 9833.0,11716.0 9874.0,11720.0 9902.0,11732.0 C 9924.0,11742.0 9942.0,11745.0 9945.0,11739.0 C 9957.0,11721.0 9902.0,11622.0 9851.0,11569.0 C 9823.0,11540.0 9800.0,11512.0 9800.0,11507.0 C 9800.0,11493.0 9921.0,11371.0 9941.0,11365.0 C 9952.0,11361.0 9960.0,11353.0 9960.0,11346.0 C 9960.0,11293.0 9777.0,11251.0 9629.0,11268.0 C 9575.0,11275.0 9529.0,11289.0 9467.0,11318.0 C 9354.0,11371.0 9270.0,11385.0 9170.0,11366.0 C 9093.0,11352.0 9041.0,11333.0 9028.0,11315.0 C 9024.0,11310.0 9020.0,11182.0 9020.0,11032.0 L 9020.0,10759.0 L 8983.0,10762.0 L 8945.0,10765.0 L 8940.0,11300.0 C 8936.0,11702.0 8932.0,11840.0 8923.0,11857.0 C 8906.0,11886.0 8907.0,11906.0 8926.0,11935.0 C 8946.0,11965.0 9003.0,11969.0 9032.0,11943.0 M 8208.0,10748.0 C 8216.0,10740.0 8220.0,10693.0 8220.0,10604.0 C 8220.0,10493.0 8223.0,10471.0 8236.0,10466.0 C 8266.0,10455.0 8465.0,10459.0 8478.0,10472.0 C 8486.0,10480.0 8490.0,10527.0 8490.0,10617.0 C 8490.0,10746.0 8491.0,10750.0 8513.0,10755.0 C 8525.0,10758.0 8603.0,10759.0 8685.0,10758.0 L 8835.0,10755.0 L 8838.0,10621.0 C 8839.0,10542.0 8845.0,10481.0 8852.0,10473.0 C 8866.0,10455.0 9090.0,10454.0 9108.0,10472.0 C 9116.0,10480.0 9120.0,10527.0 9120.0,10616.0 C 9120.0,10727.0 9123.0,10749.0 9136.0,10754.0 C 9160.0,10763.0 9458.0,10761.0 9464.0,10751.0 C 9467.0,10747.0 9472.0,10683.0 9474.0,10610.0 C 9477.0,10537.0 9483.0,10473.0 9488.0,10468.0 C 9493.0,10463.0 9550.0,10461.0 9616.0,10462.0 L 9735.0,10465.0 L 9738.0,10602.0 C 9740.0,10701.0 9744.0,10741.0 9754.0,10749.0 C 9763.0,10757.0 9821.0,10760.0 9931.0,10758.0 L 10095.0,10755.0 L 10098.0,10406.0 L 10100.0,10058.0 L 10042.0,9991.0 C 10010.0,9955.0 9974.0,9912.0 9961.0,9895.0 C 9949.0,9879.0 9923.0,9848.0 9904.0,9828.0 L 9869.0,9790.0 L 9786.0,9790.0 C 9683.0,9790.0 9675.0,9796.0 9696.0,9868.0 C 9705.0,9896.0 9710.0,9932.0 9708.0,9947.0 L 9705.0,9975.0 L 9621.0,9975.0 L 9537.0,9975.0 L 9524.0,9925.0 C 9516.0,9898.0 9507.0,9862.0 9504.0,9845.0 C 9492.0,9790.0 9491.0,9790.0 9301.0,9790.0 C 9204.0,9790.0 9119.0,9794.0 9113.0,9798.0 C 9104.0,9804.0 9101.0,9832.0 9103.0,9890.0 L 9105.0,9975.0 L 8990.0,9975.0 L 8875.0,9975.0 L 8870.0,9885.0 L 8865.0,9795.0 L 8675.0,9795.0 L 8485.0,9795.0 L 8472.0,9823.0 C 8464.0,9839.0 8455.0,9877.0 8451.0,9907.0 C 8446.0,9937.0 8437.0,9966.0 8429.0,9971.0 C 8421.0,9976.0 8381.0,9979.0 8340.0,9978.0 L 8265.0,9975.0 L 8266.0,9945.0 C 8266.0,9929.0 8269.0,9888.0 8271.0,9855.0 L 8275.0,9795.0 L 8200.0,9792.0 C 8159.0,9790.0 8116.0,9791.0 8104.0,9794.0 C 8093.0,9797.0 8056.0,9832.0 8022.0,9872.0 C 7989.0,9912.0 7948.0,9961.0 7931.0,9980.0 C 7889.0,10026.0 7885.0,10033.0 7871.0,10057.0 C 7860.0,10080.0 7854.0,10732.0 7865.0,10750.0 C 7874.0,10765.0 8193.0,10763.0 8208.0,10748.0 M 9865.0,9670.0 C 9869.0,9664.0 9876.0,9575.0 9881.0,9472.0 C 9886.0,9369.0 9897.0,9179.0 9905.0,9050.0 C 9914.0,8921.0 9920.0,8774.0 9920.0,8723.0 C 9920.0,8673.0 9927.0,8552.0 9935.0,8453.0 C 9943.0,8355.0 9951.0,8255.0 9952.0,8230.0 L 9955.0,8185.0 L 10075.0,8180.0 L 10195.0,8175.0 L 10202.0,8110.0 C 10206.0,8074.0 10214.0,7906.0 10219.0,7735.0 C 10229.0,7435.0 10239.0,7159.0 10260.0,6672.0 C 10266.0,6544.0 10267.0,6434.0 10264.0,6428.0 C 10259.0,6421.0 10223.0,6420.0 10151.0,6425.0 C 10093.0,6429.0 9921.0,6435.0 9770.0,6439.0 C 9619.0,6442.0 9489.0,6449.0 9483.0,6453.0 C 9473.0,6459.0 9470.0,6557.0 9470.0,6886.0 C 9470.0,7348.0 9467.0,7385.0 9412.0,7500.0 C 9376.0,7576.0 9263.0,7686.0 9180.0,7727.0 C 9051.0,7789.0 9001.0,7803.0 8950.0,7790.0 C 8895.0,7777.0 8803.0,7740.0 8735.0,7703.0 C 8677.0,7672.0 8586.0,7568.0 8545.0,7485.0 L 8505.0,7405.0 L 8500.0,6939.0 C 8496.0,6587.0 8492.0,6469.0 8482.0,6458.0 C 8472.0,6446.0 8422.0,6442.0 8187.0,6437.0 C 8032.0,6434.0 7863.0,6426.0 7812.0,6420.0 C 7760.0,6415.0 7714.0,6412.0 7709.0,6416.0 C 7695.0,6424.0 7698.0,6716.0 7715.0,7085.0 C 7723.0,7267.0 7737.0,7584.0 7745.0,7790.0 C 7754.0,7996.0 7764.0,8168.0 7768.0,8172.0 C 7772.0,8176.0 7827.0,8181.0 7890.0,8182.0 L 8004.0,8185.0 L 8012.0,8222.0 C 8016.0,8242.0 8024.0,8359.0 8029.0,8482.0 C 8042.0,8772.0 8058.0,9041.0 8071.0,9210.0 C 8077.0,9284.0 8084.0,9415.0 8086.0,9500.0 C 8089.0,9585.0 8093.0,9661.0 8095.0,9668.0 C 8101.0,9684.0 9855.0,9686.0 9865.0,9670.0 M 6505.0,9398.0 C 6507.0,9391.0 6510.0,9334.0 6512.0,9272.0 C 6515.0,9186.0 6519.0,9157.0 6530.0,9150.0 C 6538.0,9144.0 6588.0,9141.0 6640.0,9142.0 L 6735.0,9145.0 L 6738.0,9267.0 C 6740.0,9354.0 6744.0,9391.0 6754.0,9399.0 C 6763.0,9407.0 6814.0,9410.0 6906.0,9408.0 L 7045.0,9405.0 L 7048.0,9285.0 C 7050.0,9187.0 7053.0,9163.0 7067.0,9153.0 C 7086.0,9139.0 7247.0,9135.0 7267.0,9148.0 C 7275.0,9153.0 7280.0,9196.0 7282.0,9280.0 L 7285.0,9405.0 L 7424.0,9408.0 C 7520.0,9410.0 7567.0,9407.0 7577.0,9399.0 C 7588.0,9389.0 7590.0,9338.0 7588.0,9095.0 L 7585.0,8804.0 L 7534.0,8739.0 L 7484.0,8675.0 L 7425.0,8672.0 C 7350.0,8668.0 7323.0,8675.0 7315.0,8700.0 C 7310.0,8717.0 7300.0,8720.0 7256.0,8720.0 C 7212.0,8720.0 7200.0,8716.0 7188.0,8699.0 C 7176.0,8681.0 7161.0,8676.0 7099.0,8672.0 C 7030.0,8668.0 7022.0,8669.0 6993.0,8694.0 C 6968.0,8715.0 6952.0,8720.0 6905.0,8720.0 C 6856.0,8720.0 6844.0,8716.0 6824.0,8695.0 C 6803.0,8672.0 6793.0,8670.0 6720.0,8670.0 C 6647.0,8670.0 6638.0,8672.0 6618.0,8695.0 C 6601.0,8715.0 6587.0,8720.0 6549.0,8720.0 C 6510.0,8720.0 6500.0,8716.0 6486.0,8695.0 C 6471.0,8672.0 6463.0,8670.0 6395.0,8670.0 L 6321.0,8670.0 L 6260.0,8749.0 L 6200.0,8829.0 L 6200.0,9113.0 C 6200.0,9269.0 6203.0,9400.0 6207.0,9403.0 C 6210.0,9407.0 6278.0,9410.0 6357.0,9410.0 C 6463.0,9410.0 6502.0,9407.0 6505.0,9398.0 M 10669.0,9393.0 C 10674.0,9383.0 10678.0,9326.0 10679.0,9266.0 C 10680.0,9190.0 10684.0,9154.0 10692.0,9148.0 C 10709.0,9138.0 10881.0,9138.0 10897.0,9148.0 C 10905.0,9153.0 10910.0,9196.0 10912.0,9280.0 L 10915.0,9405.0 L 11060.0,9405.0 L 11205.0,9405.0 L 11208.0,9286.0 C 11209.0,9219.0 11215.0,9160.0 11222.0,9153.0 C 11234.0,9138.0 11406.0,9135.0 11430.0,9150.0 C 11442.0,9157.0 11446.0,9188.0 11450.0,9282.0 L 11455.0,9405.0 L 11598.0,9408.0 L 11740.0,9411.0 L 11751.0,9383.0 C 11757.0,9366.0 11760.0,9256.0 11758.0,9085.0 L 11755.0,8815.0 L 11707.0,8753.0 C 11681.0,8718.0 11650.0,8685.0 11639.0,8680.0 C 11628.0,8674.0 11589.0,8670.0 11552.0,8672.0 C 11491.0,8675.0 11485.0,8677.0 11482.0,8698.0 C 11479.0,8718.0 11473.0,8720.0 11425.0,8720.0 C 11381.0,8720.0 11366.0,8715.0 11346.0,8695.0 C 11323.0,8673.0 11313.0,8670.0 11242.0,8670.0 C 11168.0,8670.0 11161.0,8672.0 11146.0,8695.0 C 11131.0,8717.0 11123.0,8720.0 11067.0,8720.0 C 11012.0,8720.0 11000.0,8717.0 10980.0,8695.0 C 10959.0,8673.0 10949.0,8670.0 10880.0,8670.0 C 10811.0,8670.0 10801.0,8673.0 10780.0,8695.0 C 10761.0,8715.0 10747.0,8720.0 10705.0,8720.0 C 10659.0,8720.0 10652.0,8717.0 10642.0,8695.0 C 10631.0,8672.0 10625.0,8670.0 10562.0,8670.0 C 10484.0,8670.0 10480.0,8672.0 10417.0,8757.0 L 10370.0,8818.0 L 10370.0,9108.0 C 10370.0,9267.0 10373.0,9400.0 10377.0,9403.0 C 10380.0,9407.0 10445.0,9410.0 10521.0,9410.0 C 10643.0,9410.0 10660.0,9408.0 10669.0,9393.0 M 7462.0,8568.0 C 7477.0,8557.0 7480.0,8528.0 7485.0,8355.0 C 7488.0,8245.0 7497.0,8009.0 7505.0,7830.0 C 7546.0,6901.0 7562.0,6429.0 7551.0,6418.0 C 7543.0,6409.0 7189.0,6368.0 6960.0,6350.0 C 6871.0,6343.0 6798.0,6335.0 6605.0,6308.0 C 6561.0,6302.0 6494.0,6294.0 6455.0,6290.0 C 6417.0,6286.0 6357.0,6277.0 6323.0,6270.0 C 6224.0,6250.0 6227.0,6245.0 6233.0,6428.0 C 6236.0,6514.0 6243.0,6682.0 6249.0,6800.0 C 6255.0,6918.0 6267.0,7166.0 6275.0,7350.0 C 6283.0,7534.0 6297.0,7813.0 6305.0,7970.0 C 6314.0,8127.0 6320.0,8320.0 6320.0,8400.0 C 6320.0,8480.0 6324.0,8550.0 6328.0,8557.0 C 6338.0,8573.0 6372.0,8575.0 6940.0,8578.0 C 7343.0,8580.0 7448.0,8578.0 7462.0,8568.0 M 11624.0,8569.0 C 11630.0,8562.0 11651.0,8199.0 11660.0,7935.0 C 11664.0,7798.0 11673.0,7591.0 11679.0,7475.0 C 11718.0,6723.0 11733.0,6279.0 11721.0,6267.0 C 11714.0,6260.0 11683.0,6263.0 11628.0,6274.0 C 11582.0,6283.0 11527.0,6290.0 11505.0,6290.0 C 11483.0,6290.0 11449.0,6295.0 11430.0,6300.0 C 11411.0,6306.0 11350.0,6314.0 11295.0,6319.0 C 11240.0,6324.0 11159.0,6333.0 11115.0,6339.0 C 10969.0,6358.0 10836.0,6372.0 10720.0,6380.0 C 10657.0,6384.0 10559.0,6394.0 10503.0,6400.0 L 10400.0,6413.0 L 10400.0,6529.0 C 10400.0,6593.0 10405.0,6697.0 10410.0,6760.0 C 10415.0,6823.0 10424.0,7006.0 10429.0,7165.0 C 10435.0,7325.0 10444.0,7556.0 10450.0,7680.0 C 10482.0,8366.0 10492.0,8556.0 10496.0,8568.0 C 10499.0,8579.0 10605.0,8580.0 11060.0,8577.0 C 11368.0,8575.0 11622.0,8572.0 11624.0,8569.0" fill="#ffffff" fill-rule="evenodd"/>
    <g transform="scale(10,10)">
      <path d="M8898 9179 c-21 -10 -49 -36 -63 -56 l-25 -38 0 -271 c0 -170 4 -274
10 -276 5 -1 83 -1 172 2 l163 5 3 245 c4 307 -3 335 -89 388 -46 28 -119 29
-171 1z" fill="#ffffff"/>
    </g>
  </g>
</svg>
